<svg xmlns="http://www.w3.org/2000/svg" viewBox="0 0 88.71 129.164"><path d="M.5 128.664V.5h46.361a37.307 37.307 0 0 1 26.134 10.024 32.056 32.056 0 0 1 10.917 24.881q0 18.974-17.363 26.671v.716a31.125 31.125 0 0 1 15.754 11.187 29.711 29.711 0 0 1 5.909 18.169 33.768 33.768 0 0 1-11.458 26.134q-11.098 10.382-27.387 10.382zM16.968 16.252v39.2h29.893a19.927 19.927 0 0 0 14.678-5.907 19.285 19.285 0 0 0 5.907-13.781 19.384 19.384 0 0 0-5.728-13.6 18.917 18.917 0 0 0-14.141-5.907zm0 54.6v42.065h33.115a20.715 20.715 0 0 0 15.215-6.265 20.6 20.6 0 0 0 6.086-14.857 20.1 20.1 0 0 0-6.265-14.678 21.36 21.36 0 0 0-15.752-6.265z" fill="none" stroke="#707070"/></svg>