<svg xmlns="http://www.w3.org/2000/svg" viewBox="0 0 130.596 134.892"><path d="M130.096 72.637q0 26.85-15.931 42.781-17.9 18.974-47.077 18.974-27.924 0-47.256-19.332T.5 67.446q0-28.282 19.332-47.614T67.088.5a71.141 71.141 0 0 1 26.671 5.012 53.317 53.317 0 0 1 20.585 14.141L102.53 31.467a39.709 39.709 0 0 0-15.3-11.187 50.576 50.576 0 0 0-20.138-4.028q-20.943 0-35.442 14.5-14.324 14.676-14.324 36.694t14.32 36.695q14.5 14.5 35.442 14.5 19.153 0 31.862-10.74t14.678-29.535h-46.54V62.971h62.113a54.982 54.982 0 0 1 .895 9.666z" fill="none" stroke="#707070"/></svg>