<svg xmlns="http://www.w3.org/2000/svg" viewBox="0 0 132.744 140.809"><path d="M118.819 131.707l-12.888 8.413-8.771-13.067a69.463 69.463 0 0 1-30.783 7.339q-27.924 0-46.9-19.332Q.5 95.907.5 67.446t18.977-47.618Q38.451.496 66.377.496t46.9 19.511q18.974 19.153 18.974 47.435a68.307 68.307 0 0 1-5.818 28.1 66.865 66.865 0 0 1-16.558 22.733zM66.377 118.64a48.486 48.486 0 0 0 21.654-5.012L72.995 91.074l12.888-8.771 14.857 22.375q14.678-14.141 14.678-37.232 0-22.375-14.141-36.695-13.962-14.5-34.9-14.5t-35.084 14.5q-13.962 14.5-13.962 36.695t13.957 36.695q14.141 14.499 35.089 14.499z" fill="none" stroke="#707070"/></svg>