<svg xmlns="http://www.w3.org/2000/svg" viewBox="0 0 88.815 134.892"><path d="M88.315 97.339q0 16.826-12.351 27.029-12.53 10.024-30.43 10.024a44.99 44.99 0 0 1-28.1-9.308Q5.259 115.776.609 99.666l15.752-6.444a40.733 40.733 0 0 0 4.475 10.382 33.723 33.723 0 0 0 6.712 7.965 30.425 30.425 0 0 0 8.5 5.191 26.041 26.041 0 0 0 9.845 1.88q11.277 0 18.437-5.817a18.943 18.943 0 0 0 7.16-15.484 18.509 18.509 0 0 0-5.907-13.783q-5.549-5.549-20.764-10.74-15.395-5.549-19.154-7.518Q5.259 54.916 5.259 34.689q0-14.141 11.277-24.161Q27.992.504 44.636.504q14.678 0 25.418 7.518 10.74 7.339 14.32 18.437l-15.391 6.44a22.761 22.761 0 0 0-8.5-11.9A25.15 25.15 0 0 0 45 16.255q-9.666 0-16.289 5.37a15.642 15.642 0 0 0-6.623 13.067 15.145 15.145 0 0 0 5.191 11.456q5.73 4.83 24.878 11.453 19.511 6.623 27.835 16.2t8.323 23.538z" fill="none" stroke="#707070"/></svg>