<svg xmlns="http://www.w3.org/2000/svg" viewBox="0 0 105.708 103.261"><path d="M76.889 68.587H28.643l-9.876 26.832h14.072a5.635 5.635 0 0 1 3.758 1.005 3.385 3.385 0 0 1 1.136 2.666 3.42 3.42 0 0 1-1.136 2.622 5.467 5.467 0 0 1-3.758 1.049H5.394a5.467 5.467 0 0 1-3.758-1.049A3.42 3.42 0 0 1 .5 99.09a3.385 3.385 0 0 1 1.136-2.666 5.635 5.635 0 0 1 3.758-1.005h5.681L43.502 7.842H21.826a5.635 5.635 0 0 1-3.758-1.005 3.385 3.385 0 0 1-1.136-2.666 3.385 3.385 0 0 1 1.136-2.666A5.635 5.635 0 0 1 21.826.5h36.971l35.835 94.919h5.682a5.635 5.635 0 0 1 3.758 1.005 3.385 3.385 0 0 1 1.136 2.666 3.42 3.42 0 0 1-1.136 2.622 5.467 5.467 0 0 1-3.758 1.049H72.956a5.624 5.624 0 0 1-3.842-1.049 3.42 3.42 0 0 1-1.14-2.622 3.385 3.385 0 0 1 1.14-2.666 5.8 5.8 0 0 1 3.846-1.005h13.981zm-2.8-7.342L53.814 7.842h-2.708l-19.666 53.4z" fill="none" stroke="#707070"/></svg>