<svg xmlns="http://www.w3.org/2000/svg" viewBox="0 0 90.675 103.261"><path d="M15.271 95.419V7.842H5.396a5.635 5.635 0 0 1-3.76-1.005 3.385 3.385 0 0 1-1.14-2.666 3.385 3.385 0 0 1 1.136-2.666A5.635 5.635 0 0 1 5.39.5h46.153q13.722 0 22.331 7.91t8.609 18.573q0 13.46-14.421 21.763 11.45 4.108 16.781 10.925a23.844 23.844 0 0 1 5.332 15.033 26.416 26.416 0 0 1-3.5 13.416 29.087 29.087 0 0 1-10.703 10.358 30.173 30.173 0 0 1-15.689 4.283H5.396a5.467 5.467 0 0 1-3.76-1.049 3.42 3.42 0 0 1-1.14-2.622 3.385 3.385 0 0 1 1.14-2.666 5.635 5.635 0 0 1 3.76-1.005zm7.342-49.47h25.958a37.129 37.129 0 0 0 15.208-3.059 19.034 19.034 0 0 0 8.3-7.08 17.3 17.3 0 0 0 2.972-9.439q0-6.9-6.468-12.717T51.718 7.842h-29.1zm0 49.47h37.146a23.5 23.5 0 0 0 12.324-3.146 22.162 22.162 0 0 0 7.954-7.779 18.789 18.789 0 0 0 2.709-9.614 17.985 17.985 0 0 0-3.89-10.838 23.926 23.926 0 0 0-10.794-7.954q-6.9-2.709-19.054-2.709h-26.4z" fill="none" stroke="#707070"/></svg>