<svg xmlns="http://www.w3.org/2000/svg" viewBox="0 0 86.042 108.505"><path d="M75.4 12.912V7.755a5.635 5.635 0 0 1 1.005-3.758 3.385 3.385 0 0 1 2.666-1.136 3.385 3.385 0 0 1 2.666 1.136 5.635 5.635 0 0 1 1.005 3.758v20.366a5.8 5.8 0 0 1-1.005 3.846 3.385 3.385 0 0 1-2.666 1.136 3.311 3.311 0 0 1-2.491-1.049 5.422 5.422 0 0 1-1.18-3.41q-.433-7.342-7.95-13.023a36.9 36.9 0 0 0-23.074-7.779A35.285 35.285 0 0 0 28.381 11.6a26.653 26.653 0 0 0-8.915 6.643 56.45 56.45 0 0 0-9.177 15.121 36.916 36.916 0 0 0-2.447 13.81v12.847q0 16.432 11.887 28.537t27.619 12.105a34.521 34.521 0 0 0 16.912-4.107 52.182 52.182 0 0 0 14.465-12.412 4.256 4.256 0 0 1 3.321-1.835 3.427 3.427 0 0 1 2.535.961 3.315 3.315 0 0 1 .961 2.447q0 2.01-3.758 6.118a48.27 48.27 0 0 1-16.125 12.106 43.52 43.52 0 0 1-18.136 4.064 46.132 46.132 0 0 1-16.17-3.059 40.357 40.357 0 0 1-10.4-5.506q-4.109-3.147-10.096-10.619a47.749 47.749 0 0 1-8.172-13.81A42.527 42.527 0 0 1 .5 61.07V46.121a48.3 48.3 0 0 1 5.812-22.156A42.283 42.283 0 0 1 22.22 6.575 41.7 41.7 0 0 1 44.114.501 43.937 43.937 0 0 1 75.4 12.912z" fill="none" stroke="#707070"/></svg>