<svg xmlns="http://www.w3.org/2000/svg" viewBox="0 0 87.004 103.261"><path d="M11.6 95.419V7.842H5.39a5.635 5.635 0 0 1-3.758-1.005A3.385 3.385 0 0 1 .5 4.171a3.385 3.385 0 0 1 1.136-2.666A5.635 5.635 0 0 1 5.394.5H44.9a37.107 37.107 0 0 1 16.912 3.846 35.425 35.425 0 0 1 11.668 8.74 62.974 62.974 0 0 1 10.489 17.568 45.106 45.106 0 0 1 2.534 15.907V56.7a50.722 50.722 0 0 1-4.981 21.851Q76.54 89.126 64.915 96.992a35.239 35.239 0 0 1-20.015 5.769H5.39a5.467 5.467 0 0 1-3.758-1.049A3.42 3.42 0 0 1 .5 99.09a3.385 3.385 0 0 1 1.136-2.666 5.635 5.635 0 0 1 3.754-1.005zm7.342 0h26.657a28.473 28.473 0 0 0 17.349-6.031 39.144 39.144 0 0 0 12.149-14.465 38.138 38.138 0 0 0 4.064-16.65V44.988a31.808 31.808 0 0 0-2.185-12.149 56.443 56.443 0 0 0-8.915-14.771 29.261 29.261 0 0 0-9.265-7.036 28.123 28.123 0 0 0-13.2-3.19H18.941z" fill="none" stroke="#707070"/></svg>