<svg xmlns="http://www.w3.org/2000/svg" viewBox="0 0 86.742 103.261"><path d="M22.613 53.379v42.04h25.172a5.635 5.635 0 0 1 3.758 1.005 3.385 3.385 0 0 1 1.136 2.666 3.42 3.42 0 0 1-1.136 2.622 5.467 5.467 0 0 1-3.758 1.049H5.395a5.467 5.467 0 0 1-3.758-1.049A3.42 3.42 0 0 1 .503 99.09a3.385 3.385 0 0 1 1.136-2.666 5.635 5.635 0 0 1 3.758-1.005h9.876V7.842H5.395a5.635 5.635 0 0 1-3.758-1.005A3.385 3.385 0 0 1 .503 4.171a3.56 3.56 0 0 1 1.311-2.8Q2.775.497 5.397.497h80.845v25.264a5.467 5.467 0 0 1-1.049 3.758 3.42 3.42 0 0 1-2.622 1.136 3.519 3.519 0 0 1-2.709-1.136 5.467 5.467 0 0 1-1.05-3.758V7.842H22.613v38.195h26.308v-8.3a5.467 5.467 0 0 1 1.049-3.758 3.52 3.52 0 0 1 2.709-1.136 3.42 3.42 0 0 1 2.624 1.132 5.467 5.467 0 0 1 1.049 3.758v23.948a5.467 5.467 0 0 1-1.049 3.759 3.42 3.42 0 0 1-2.622 1.136 3.52 3.52 0 0 1-2.709-1.136 5.467 5.467 0 0 1-1.049-3.758v-8.3z" fill="none" stroke="#707070"/></svg>