<svg xmlns="http://www.w3.org/2000/svg" viewBox="0 0 90.937 108.505"><path d="M82.92 67.188v31.465a79.305 79.305 0 0 1-16.738 6.992 60.96 60.96 0 0 1-16.65 2.36 56.866 56.866 0 0 1-20.758-3.5 42.847 42.847 0 0 1-15.162-9.784 47.2 47.2 0 0 1-9.66-14.073Q.5 72.869.5 60.895v-13.46a49.913 49.913 0 0 1 5.987-23.468A42.356 42.356 0 0 1 22.875 6.531 44.343 44.343 0 0 1 45.512.5q17.743 0 29.979 9.7a23.561 23.561 0 0 1 .306-5.157 3.132 3.132 0 0 1 1.267-1.53 3.788 3.788 0 0 1 2.185-.656 3.42 3.42 0 0 1 2.622 1.136 5.467 5.467 0 0 1 1.049 3.758v16.61a5.445 5.445 0 0 1-1.049 3.8 3.485 3.485 0 0 1-2.622 1.093 3.383 3.383 0 0 1-2.491-1.005 5.208 5.208 0 0 1-1.093-3.54q-.524-7.429-9.658-12.149a42.67 42.67 0 0 0-19.884-4.72 37.9 37.9 0 0 0-18.311 4.416q-8.171 4.414-15.251 16.825a36.048 36.048 0 0 0-4.72 18.44v13.373q0 18.267 11.188 29.018t30.853 10.751a51.482 51.482 0 0 0 12.324-1.4 76.437 76.437 0 0 0 13.285-4.892V67.188h-25.26a5.635 5.635 0 0 1-3.758-1.005 3.385 3.385 0 0 1-1.136-2.662 3.52 3.52 0 0 1 1.136-2.709 5.467 5.467 0 0 1 3.758-1.049l35.311.087a5.635 5.635 0 0 1 3.758 1.005 3.385 3.385 0 0 1 1.136 2.666 3.491 3.491 0 0 1-.7 2.1 3.354 3.354 0 0 1-1.573 1.267 24.226 24.226 0 0 1-5.243.3z" fill="none" stroke="#707070"/></svg>