<svg xmlns="http://www.w3.org/2000/svg" viewBox="0 0 90.85 103.261"><path d="M69.723 53.291H21.04v42.128h9.876a5.635 5.635 0 0 1 3.758 1.005 3.385 3.385 0 0 1 1.136 2.666 3.42 3.42 0 0 1-1.136 2.622 5.467 5.467 0 0 1-3.758 1.049H5.395a5.467 5.467 0 0 1-3.758-1.049A3.42 3.42 0 0 1 .5 99.09a3.385 3.385 0 0 1 1.136-2.666 5.635 5.635 0 0 1 3.758-1.005h8.3V7.842H9.148a5.8 5.8 0 0 1-3.846-1.005 3.385 3.385 0 0 1-1.136-2.666 3.385 3.385 0 0 1 1.136-2.666A5.8 5.8 0 0 1 9.148.5h21.768a5.635 5.635 0 0 1 3.758 1.005 3.385 3.385 0 0 1 1.136 2.666 3.385 3.385 0 0 1-1.136 2.666 5.635 5.635 0 0 1-3.758 1.005H21.04v38.107h48.683V7.842h-9.789a5.635 5.635 0 0 1-3.758-1.005 3.385 3.385 0 0 1-1.136-2.666 3.449 3.449 0 0 1 1.093-2.666A5.612 5.612 0 0 1 59.933.5h21.764a5.8 5.8 0 0 1 3.846 1.005 3.385 3.385 0 0 1 1.136 2.666 3.385 3.385 0 0 1-1.136 2.666 5.8 5.8 0 0 1-3.846 1.005h-4.549v87.577h8.3a5.635 5.635 0 0 1 3.758 1.005 3.385 3.385 0 0 1 1.142 2.666 3.42 3.42 0 0 1-1.136 2.622 5.467 5.467 0 0 1-3.757 1.049H59.934a5.467 5.467 0 0 1-3.758-1.049 3.42 3.42 0 0 1-1.136-2.622 3.449 3.449 0 0 1 1.093-2.666 5.612 5.612 0 0 1 3.8-1.005h9.789z" fill="none" stroke="#707070"/></svg>