<svg xmlns="http://www.w3.org/2000/svg" viewBox="0 0 68.475 103.261"><path d="M37.908 7.842v87.577h25.177a5.635 5.635 0 0 1 3.758 1.005 3.385 3.385 0 0 1 1.132 2.666 3.42 3.42 0 0 1-1.136 2.622 5.467 5.467 0 0 1-3.754 1.049H5.395a5.467 5.467 0 0 1-3.758-1.049A3.42 3.42 0 0 1 .501 99.09a3.385 3.385 0 0 1 1.136-2.666 5.635 5.635 0 0 1 3.758-1.005h25.172V7.842H5.395a5.635 5.635 0 0 1-3.758-1.005A3.385 3.385 0 0 1 .501 4.171a3.385 3.385 0 0 1 1.136-2.666A5.635 5.635 0 0 1 5.395.5h57.69a5.635 5.635 0 0 1 3.758 1.005 3.385 3.385 0 0 1 1.132 2.666 3.385 3.385 0 0 1-1.136 2.666 5.635 5.635 0 0 1-3.754 1.005z" fill="none" stroke="#707070"/></svg>