<svg xmlns="http://www.w3.org/2000/svg" viewBox="0 0 90.85 106.145"><path d="M67.974 7.842v64.853q0 13.373-9.964 23.162a32.743 32.743 0 0 1-23.773 9.788 37.6 37.6 0 0 1-16.3-3.8q-8-3.8-17.437-12.455V62.294a5.467 5.467 0 0 1 1.049-3.758A3.42 3.42 0 0 1 4.171 57.4a3.52 3.52 0 0 1 2.709 1.136 5.467 5.467 0 0 1 1.049 3.758l-.087 23.6a53.66 53.66 0 0 0 13.328 9.307 30.52 30.52 0 0 0 13.067 3.1 27.774 27.774 0 0 0 13.547-3.5q4.807-2.622 8.784-8.828a24.186 24.186 0 0 0 3.977-13.285V7.842H31.79a5.8 5.8 0 0 1-3.846-1.005 3.385 3.385 0 0 1-1.136-2.666 3.385 3.385 0 0 1 1.136-2.666A5.8 5.8 0 0 1 31.79.5h53.664a5.635 5.635 0 0 1 3.758 1.005 3.385 3.385 0 0 1 1.142 2.666 3.385 3.385 0 0 1-1.136 2.666 5.635 5.635 0 0 1-3.764 1.005z" fill="none" stroke="#707070"/></svg>