<svg xmlns="http://www.w3.org/2000/svg" viewBox="0 0 87.004 103.261"><path d="M30.304 7.842v87.577h48.77V66.227a5.467 5.467 0 0 1 1.049-3.758 3.52 3.52 0 0 1 2.709-1.136 3.485 3.485 0 0 1 2.622 1.093 5.445 5.445 0 0 1 1.049 3.8v36.535H5.394a5.467 5.467 0 0 1-3.758-1.049A3.42 3.42 0 0 1 .5 99.09a3.385 3.385 0 0 1 1.136-2.666 5.635 5.635 0 0 1 3.758-1.005h17.48V7.842H5.394a5.635 5.635 0 0 1-3.758-1.005A3.385 3.385 0 0 1 .5 4.171a3.385 3.385 0 0 1 1.136-2.666A5.635 5.635 0 0 1 5.394.5h42.39a5.635 5.635 0 0 1 3.758 1.005 3.385 3.385 0 0 1 1.136 2.666 3.385 3.385 0 0 1-1.136 2.666 5.635 5.635 0 0 1-3.758 1.005z" fill="none" stroke="#707070"/></svg>