<svg xmlns="http://www.w3.org/2000/svg" viewBox="0 0 105.184 103.261"><path d="M56.962 72.083h-8.391L20.34 7.842h-1.4v87.577h13.549a5.635 5.635 0 0 1 3.758 1.005 3.385 3.385 0 0 1 1.136 2.666 3.42 3.42 0 0 1-1.136 2.622 5.467 5.467 0 0 1-3.758 1.049H5.394a5.467 5.467 0 0 1-3.758-1.049A3.42 3.42 0 0 1 .502 99.09a3.385 3.385 0 0 1 1.134-2.666 5.635 5.635 0 0 1 3.758-1.005h6.208V7.842H6.967a5.635 5.635 0 0 1-3.758-1.005 3.385 3.385 0 0 1-1.136-2.666 3.385 3.385 0 0 1 1.136-2.666A5.635 5.635 0 0 1 6.967.5h18l27.799 63.28L80.123.501h18a5.8 5.8 0 0 1 3.846 1.005 3.385 3.385 0 0 1 1.136 2.666 3.385 3.385 0 0 1-1.136 2.666 5.8 5.8 0 0 1-3.846 1.005h-4.54v87.576h6.119a5.8 5.8 0 0 1 3.846 1.005 3.385 3.385 0 0 1 1.136 2.666 3.42 3.42 0 0 1-1.136 2.622 5.624 5.624 0 0 1-3.846 1.049H72.694a5.648 5.648 0 0 1-3.8-1.049 3.363 3.363 0 0 1-1.18-2.622 3.385 3.385 0 0 1 1.136-2.666 5.8 5.8 0 0 1 3.846-1.005h13.545V7.842h-1.573z" fill="none" stroke="#707070"/></svg>