<svg xmlns="http://www.w3.org/2000/svg" viewBox="0 0 97.754 103.261"><path d="M86.154 102.761h-9.44l-54.1-91.51v84.168H36.16a5.8 5.8 0 0 1 3.846 1.005 3.385 3.385 0 0 1 1.136 2.666 3.42 3.42 0 0 1-1.136 2.622 5.624 5.624 0 0 1-3.846 1.049H9.152a5.624 5.624 0 0 1-3.845-1.049A3.42 3.42 0 0 1 4.17 99.09a3.385 3.385 0 0 1 1.137-2.666 5.8 5.8 0 0 1 3.846-1.005h6.118V7.842H5.394a5.635 5.635 0 0 1-3.758-1.005A3.385 3.385 0 0 1 .5 4.171a3.385 3.385 0 0 1 1.136-2.666A5.635 5.635 0 0 1 5.394.5h19.229l54.189 91.685V7.842H65.265a5.635 5.635 0 0 1-3.758-1.005 3.385 3.385 0 0 1-1.136-2.666 3.449 3.449 0 0 1 1.093-2.666A5.612 5.612 0 0 1 65.264.5h27.095a5.635 5.635 0 0 1 3.758 1.005 3.385 3.385 0 0 1 1.136 2.666 3.385 3.385 0 0 1-1.136 2.666 5.635 5.635 0 0 1-3.758 1.005h-6.205z" fill="none" stroke="#707070"/></svg>