<svg xmlns="http://www.w3.org/2000/svg" viewBox="0 0 90.5 108.505"><path d="M90 54.253a62.763 62.763 0 0 1-5.943 27.226 47.183 47.183 0 0 1-16.388 19.534 39.556 39.556 0 0 1-22.419 6.992q-17.743 0-31.246-15.077T.5 54.253Q.5 30.567 14 15.534T45.25.5a39.353 39.353 0 0 1 22.375 6.992A47.673 47.673 0 0 1 84.01 26.983 62.3 62.3 0 0 1 90 54.253zm-7.429 0a53.2 53.2 0 0 0-10.4-32.164q-10.4-14.247-26.92-14.247-15.47 0-26.439 13.591t-10.97 32.82q0 20.452 11.493 33.431t25.915 12.979q16.519 0 26.92-14.2a53.14 53.14 0 0 0 10.401-32.21z" fill="none" stroke="#707070"/></svg>