<svg xmlns="http://www.w3.org/2000/svg" viewBox="0 0 82.809 103.261"><path d="M22.613 60.808v34.611h25.172a5.635 5.635 0 0 1 3.758 1.005 3.385 3.385 0 0 1 1.136 2.666 3.42 3.42 0 0 1-1.136 2.622 5.467 5.467 0 0 1-3.758 1.049H5.395a5.467 5.467 0 0 1-3.758-1.049A3.42 3.42 0 0 1 .501 99.09a3.385 3.385 0 0 1 1.136-2.666 5.635 5.635 0 0 1 3.758-1.005h9.876V7.842H5.395a5.635 5.635 0 0 1-3.758-1.005A3.385 3.385 0 0 1 .501 4.171a3.385 3.385 0 0 1 1.136-2.666A5.635 5.635 0 0 1 5.395.5h42.652q15.121 0 24.691 8.915t9.571 20.889a26.181 26.181 0 0 1-3.1 12.761 26.867 26.867 0 0 1-7.473 8.915 46.849 46.849 0 0 1-13.547 7.167 40.916 40.916 0 0 1-12.586 1.661zm0-7.342h23.424a33.14 33.14 0 0 0 15.252-3.627q7.123-3.627 10.4-8.871a19.914 19.914 0 0 0 3.278-10.663q0-8.653-7.429-15.558t-18.792-6.9H22.613z" fill="none" stroke="#707070"/></svg>