<svg xmlns="http://www.w3.org/2000/svg" viewBox="0 0 90.5 126.51"><path d="M46.124 108.005l-9.789 7.342a61.989 61.989 0 0 1 11.975-1.486 42.6 42.6 0 0 1 15.121 2.8 24.8 24.8 0 0 0 8.128 2.01q5.069 0 11.275-4.108a8.123 8.123 0 0 1 3.5-1.573 3.491 3.491 0 0 1 2.576 1.002 3.6 3.6 0 0 1 1 2.666 3.267 3.267 0 0 1-.874 2.272q-1.835 2.1-8.3 4.895a23.47 23.47 0 0 1-9.614 2.185q-3.671 0-10.139-2.36a36.386 36.386 0 0 0-12.5-2.36 66.26 66.26 0 0 0-10.573 1.049 143.8 143.8 0 0 0-14.161 2.972 11.922 11.922 0 0 1-2.535.437 3.453 3.453 0 0 1-2.535-1.049 3.78 3.78 0 0 1-1.049-2.8 3.9 3.9 0 0 1 2.01-3.146l16.344-11.8q-14.6-3.583-25.041-18T.5 54.253Q.5 30.567 14 15.534T45.25.5q17.743 0 31.246 15.033t13.5 38.719q0 23.336-13.285 38.413t-30.587 15.34zm36.447-53.752a53.2 53.2 0 0 0-10.4-32.164q-10.4-14.247-26.92-14.247-15.47 0-26.439 13.591t-10.97 32.82q0 20.452 11.493 33.431t25.915 12.979q16.519 0 26.92-14.2a53.14 53.14 0 0 0 10.401-32.21z" fill="none" stroke="#707070"/></svg>