<svg xmlns="http://www.w3.org/2000/svg" viewBox="0 0 99.415 103.261"><path d="M22.609 57.137v38.282h13.552a5.8 5.8 0 0 1 3.848 1.005 3.385 3.385 0 0 1 1.136 2.666 3.42 3.42 0 0 1-1.136 2.622 5.624 5.624 0 0 1-3.848 1.049H5.395a5.467 5.467 0 0 1-3.758-1.049A3.42 3.42 0 0 1 .5 99.09a3.385 3.385 0 0 1 1.137-2.666 5.635 5.635 0 0 1 3.758-1.005h9.876V7.842H5.395a5.635 5.635 0 0 1-3.758-1.005A3.385 3.385 0 0 1 .5 4.171a3.385 3.385 0 0 1 1.136-2.666A5.635 5.635 0 0 1 5.394.5h44.4q13.722 0 23.118 8.7t9.4 19.622q0 7.866-5.812 14.815T57.05 55.214A64.838 64.838 0 0 1 70.509 67.45q5.594 6.817 17.917 27.969h5.594a5.635 5.635 0 0 1 3.758 1.005 3.385 3.385 0 0 1 1.136 2.666 3.42 3.42 0 0 1-1.136 2.622 5.467 5.467 0 0 1-3.757 1.049h-9.789Q70.597 78.376 63.124 70.073A54.622 54.622 0 0 0 45.95 57.137zm0-7.342h20.019a42.268 42.268 0 0 0 17.437-3.5q7.823-3.5 11.362-8.216a15.9 15.9 0 0 0 3.54-9.614q0-7.342-7.385-13.984a25.9 25.9 0 0 0-17.961-6.643H22.609z" fill="none" stroke="#707070"/></svg>