<svg xmlns="http://www.w3.org/2000/svg" viewBox="0 0 83.246 103.261"><path d="M45.337 7.842v87.577h19.054a5.635 5.635 0 0 1 3.758 1.005 3.385 3.385 0 0 1 1.136 2.666 3.42 3.42 0 0 1-1.136 2.622 5.467 5.467 0 0 1-3.758 1.049H18.854a5.467 5.467 0 0 1-3.758-1.049 3.42 3.42 0 0 1-1.136-2.622 3.385 3.385 0 0 1 1.136-2.666 5.635 5.635 0 0 1 3.758-1.005h19.054V7.842H7.841v25.434a5.8 5.8 0 0 1-1.005 3.846 3.385 3.385 0 0 1-2.666 1.139 3.42 3.42 0 0 1-2.622-1.136 5.624 5.624 0 0 1-1.047-3.849V.5h82.244v32.776a5.8 5.8 0 0 1-1.005 3.846 3.385 3.385 0 0 1-2.666 1.139 3.385 3.385 0 0 1-2.666-1.136 5.8 5.8 0 0 1-1.007-3.849V7.842z" fill="none" stroke="#707070"/></svg>