<svg xmlns="http://www.w3.org/2000/svg" viewBox="0 0 94.083 106.145"><path d="M82.484 7.842v61.356q0 15.47-10.313 25.958a33.658 33.658 0 0 1-24.91 10.489 34.827 34.827 0 0 1-17.393-4.284 36.062 36.062 0 0 1-12.936-12.978A36 36 0 0 1 11.6 69.198V7.842H5.395a5.635 5.635 0 0 1-3.758-1.005A3.385 3.385 0 0 1 .5 4.171a3.667 3.667 0 0 1 1.224-2.8A5.841 5.841 0 0 1 5.395.497H32.49a5.635 5.635 0 0 1 3.756 1.008 3.385 3.385 0 0 1 1.136 2.666 3.385 3.385 0 0 1-1.136 2.666 5.635 5.635 0 0 1-3.758 1.005H18.946v61.356a28.378 28.378 0 0 0 8.3 20.627 26.609 26.609 0 0 0 19.665 8.478 26.834 26.834 0 0 0 13.241-3.321 30.158 30.158 0 0 0 10.489-10.221 27.864 27.864 0 0 0 4.5-15.558V7.842H61.595a5.635 5.635 0 0 1-3.758-1.005 3.385 3.385 0 0 1-1.136-2.666 3.385 3.385 0 0 1 1.136-2.666A5.635 5.635 0 0 1 61.595.5h27.094a5.635 5.635 0 0 1 3.758 1.005 3.385 3.385 0 0 1 1.136 2.666 3.385 3.385 0 0 1-1.137 2.666 5.635 5.635 0 0 1-3.758 1.005z" fill="none" stroke="#707070"/></svg>