<svg xmlns="http://www.w3.org/2000/svg" viewBox="0 0 105.708 103.261"><path d="M58.273 102.761H48.047L11.076 7.842H5.395a7.607 7.607 0 0 1-2.884-.393 3.269 3.269 0 0 1-1.442-1.311 3.671 3.671 0 0 1-.567-1.967 3.671 3.671 0 0 1 .568-1.967A3.269 3.269 0 0 1 2.512.893 7.607 7.607 0 0 1 5.396.5h27.356a7.565 7.565 0 0 1 2.928.393 3.334 3.334 0 0 1 1.4 1.311 3.671 3.671 0 0 1 .568 1.967 3.481 3.481 0 0 1-.612 1.967 3.609 3.609 0 0 1-1.442 1.311 7.249 7.249 0 0 1-2.841.393H18.68l34.087 87.577h.524l33.65-87.577H72.957a7.93 7.93 0 0 1-2.972-.393 3.269 3.269 0 0 1-1.442-1.311 3.671 3.671 0 0 1-.568-1.967 3.481 3.481 0 0 1 .612-1.967A3.609 3.609 0 0 1 70.029.893 7.565 7.565 0 0 1 72.957.5h27.27a7.93 7.93 0 0 1 2.972.393 3.27 3.27 0 0 1 1.442 1.311 3.671 3.671 0 0 1 .568 1.967 3.481 3.481 0 0 1-.612 1.967 3.609 3.609 0 0 1-1.442 1.311 7.565 7.565 0 0 1-2.928.393h-5.594z" fill="none" stroke="#707070"/></svg>