<svg xmlns="http://www.w3.org/2000/svg" viewBox="0 0 101.6 103.261"><path d="M83.183 102.761H71.645l-20.8-72.631-20.366 72.631H18.942L8.104 7.842h-2.71a5.635 5.635 0 0 1-3.758-1.005A3.385 3.385 0 0 1 .5 4.171a3.385 3.385 0 0 1 1.136-2.666A5.635 5.635 0 0 1 5.394.5h27.272a5.8 5.8 0 0 1 3.846 1.005 3.385 3.385 0 0 1 1.134 2.666 3.385 3.385 0 0 1-1.136 2.666 5.8 5.8 0 0 1-3.844 1.005H15.533l9.7 86.528 19.84-71.233H56.35L76.715 94.37l9.527-86.528H69.023a5.635 5.635 0 0 1-3.757-1.005 3.385 3.385 0 0 1-1.136-2.666 3.385 3.385 0 0 1 1.136-2.666A5.635 5.635 0 0 1 69.024.5h27.094a5.8 5.8 0 0 1 3.846 1.005 3.385 3.385 0 0 1 1.136 2.666 3.385 3.385 0 0 1-1.136 2.666 5.8 5.8 0 0 1-3.846 1.005h-2.709z" fill="none" stroke="#707070"/></svg>