<svg xmlns="http://www.w3.org/2000/svg" viewBox="0 0 94.695 103.261"><path d="M51.631 50.407l34.877 45.012h2.8a5.635 5.635 0 0 1 3.758 1.005 3.385 3.385 0 0 1 1.136 2.666 3.42 3.42 0 0 1-1.136 2.622 5.467 5.467 0 0 1-3.765 1.049h-23.6a5.467 5.467 0 0 1-3.758-1.049 3.42 3.42 0 0 1-1.135-2.622 3.385 3.385 0 0 1 1.136-2.666 5.635 5.635 0 0 1 3.758-1.005h11.712L47.086 56.438 17.108 95.419h11.711a5.635 5.635 0 0 1 3.758 1.005 3.385 3.385 0 0 1 1.136 2.666 3.42 3.42 0 0 1-1.136 2.622 5.467 5.467 0 0 1-3.758 1.049H5.395a5.467 5.467 0 0 1-3.759-1.049A3.42 3.42 0 0 1 .5 99.09a3.621 3.621 0 0 1 .7-2.185 3.08 3.08 0 0 1 1.573-1.224 28.972 28.972 0 0 1 5.335-.262l34.433-45.012L9.677 7.842H6.968a5.635 5.635 0 0 1-3.76-1.005 3.385 3.385 0 0 1-1.135-2.666 3.385 3.385 0 0 1 1.135-2.666A5.635 5.635 0 0 1 6.966.5h20.017a5.8 5.8 0 0 1 3.846 1.005 3.385 3.385 0 0 1 1.136 2.666 3.385 3.385 0 0 1-1.136 2.666 5.8 5.8 0 0 1-3.846 1.005h-8.216l28.319 36.619L75.229 7.842h-8.216a5.8 5.8 0 0 1-3.846-1.005 3.385 3.385 0 0 1-1.136-2.666 3.385 3.385 0 0 1 1.136-2.666A5.8 5.8 0 0 1 67.013.5h20.1a5.635 5.635 0 0 1 3.758 1.005 3.385 3.385 0 0 1 1.137 2.666 3.385 3.385 0 0 1-1.136 2.666 5.635 5.635 0 0 1-3.758 1.005h-2.8z" fill="none" stroke="#707070"/></svg>