<svg xmlns="http://www.w3.org/2000/svg" viewBox="0 0 90.937 103.261"><path d="M49.447 56.613v38.806h19.052a5.635 5.635 0 0 1 3.758 1.005 3.385 3.385 0 0 1 1.136 2.666 3.42 3.42 0 0 1-1.136 2.622 5.467 5.467 0 0 1-3.758 1.049H22.962a5.467 5.467 0 0 1-3.758-1.049 3.42 3.42 0 0 1-1.136-2.622 3.449 3.449 0 0 1 1.093-2.666 5.612 5.612 0 0 1 3.8-1.005h19.055V56.613L9.764 7.842h-4.37a5.635 5.635 0 0 1-3.758-1.005A3.385 3.385 0 0 1 .5 4.171a3.385 3.385 0 0 1 1.136-2.666A5.635 5.635 0 0 1 5.394.5h20.19a5.635 5.635 0 0 1 3.758 1.005 3.385 3.385 0 0 1 1.136 2.666 3.385 3.385 0 0 1-1.131 2.666 5.635 5.635 0 0 1-3.758 1.005H18.33l27.444 41.341L72.607 7.842H65.44a5.8 5.8 0 0 1-3.846-1.005 3.385 3.385 0 0 1-1.136-2.666 3.385 3.385 0 0 1 1.136-2.666A5.8 5.8 0 0 1 65.44.5h20.107a5.635 5.635 0 0 1 3.758 1.005 3.385 3.385 0 0 1 1.132 2.666 3.385 3.385 0 0 1-1.136 2.666 5.635 5.635 0 0 1-3.754 1.005h-4.37z" fill="none" stroke="#707070"/></svg>