<svg xmlns="http://www.w3.org/2000/svg" viewBox="0 0 117.245 143.466"><path d="M58.622 130.819q-26.833 0-42.478-17.524T.5 65.702q0-30.066 15.645-47.634T58.623.5q26.833 0 42.478 17.568t15.645 47.634q0 18.18-5.943 32.077a53.454 53.454 0 0 1-16.956 22.2l16.694 22.987H92.884l-11.712-16.082a61.446 61.446 0 0 1-22.55 3.935zm0-14.509a43.689 43.689 0 0 0 13.373-2.01L56.258 92.619h17.66l10.75 14.686a41.2 41.2 0 0 0 11.8-17.131 67.756 67.756 0 0 0 4.108-24.473q0-23.336-11.319-37.015T58.622 15.009q-19.316 0-30.635 13.678T16.669 65.702q0 23.249 11.319 36.927t30.634 13.679z" fill="none" stroke="#707070"/></svg>