<svg xmlns="http://www.w3.org/2000/svg" viewBox="0 0 94.993 131.317"><path d="M.536 94.019h15.82a22.362 22.362 0 0 0 10.007 16.433q8.871 6.206 22.419 6.206 12.761 0 21.108-6.074t8.347-15.339a16.755 16.755 0 0 0-5.812-13.11q-5.812-5.157-18.573-8.478l-16.169-4.2Q20.201 65.003 12.16 57.005T4.119 36.16q0-15.732 12.455-25.7T48.694.496q18.791 0 31.115 10.095A33.538 33.538 0 0 1 92.658 36.51H76.93a22.053 22.053 0 0 0-8.74-15.995q-7.691-5.856-20.015-5.856-12.236 0-19.971 5.769a17.915 17.915 0 0 0-7.735 15.033 14.486 14.486 0 0 0 5.632 11.758q5.637 4.589 18.486 7.91l13.2 3.5q19.575 4.89 28.143 13.016t8.563 21.674q0 17.306-12.717 27.4t-34.48 10.1q-20.103 0-32.866-10.054T.536 94.019z" fill="none" stroke="#707070"/></svg>