<svg xmlns="http://www.w3.org/2000/svg" viewBox="0 0 105.536 136.503"><path d="M105.036 58.496a6.724 6.724 0 0 1-.626 2.685 4.806 4.806 0 0 1-1.7 2.148q-1.253 1.074-5.191 1.88t-5.37.984q1.432 6.8 1.432 6.623 1.253 4.475 2.685 12.351 3.221 18.077 6.622 30.788a40.474 40.474 0 0 1 .9 4.833 3.9 3.9 0 0 1-1.432 3.043 5 5 0 0 1-3.4 1.253 4.057 4.057 0 0 1-3.222-1.88 13.634 13.634 0 0 1-1.969-3.312q-1.611-6.086-2.953-13.6T87.673 88.21q-.716-4.654-2.331-11.546t-2.148-9.039q-10.552 1.432-36.333 5.728l-10.382 1.791-3.759 10.56-5.012 14.32q-6.266 19.511-8.95 30.072a8.593 8.593 0 0 1-2.148 4.206 5.217 5.217 0 0 1-3.938 1.7 5.133 5.133 0 0 1-3.311-1.074 3.673 3.673 0 0 1-1.343-3.043q0-1.969 2.148-8.324t2.506-7.606q.716-1.79 2.864-8.234 2.327-6.981 6-16.916t4.919-13.161q-9.129 2.148-13.6 3.4a49.734 49.734 0 0 1-8.413 1.8 3.284 3.284 0 0 1-2.953-1.521 5.977 5.977 0 0 1-.985-3.312 3.486 3.486 0 0 1 1.074-2.953 11.54 11.54 0 0 1 3.58-1.522q6.8-1.611 14.41-3.222t10.472-2.148q1.79-5.191 2.685-8.771.716-2.327 1.879-5.817t2.6-8.682l2.685-9.129q6.8-23.986 7.876-27.387a26.439 26.439 0 0 1 1.7-3.938 2.474 2.474 0 0 1 2.238-1.432 18.247 18.247 0 0 1 6.439 1.07 12.95 12.95 0 0 0 1.164-1.521 4.507 4.507 0 0 1 1.79-1.611 6.339 6.339 0 0 1 2.6-.448q3.222 0 7.429 7.339a132.634 132.634 0 0 1 8.145 17.363q2.327 5.907 5.907 17.632t4.654 15.484a25.119 25.119 0 0 0 4.564-.984l2.416-.806a7.608 7.608 0 0 0 1.969-1.253 10.521 10.521 0 0 1 1.969-1.342 2.108 2.108 0 0 1 1.969.09q2.318 1.072 2.318 4.473zm-23.449 1.248q-.9-3.222-3.759-13.515t-5.37-16.737a99.353 99.353 0 0 0-6.444-13.6q-3.938-6.981-6.623-8.771l-1.969 4.654a89.507 89.507 0 0 0-5.191 12.351q-4.3 12.888-13.6 42.6l20.943-3.58 17.184-2.685z" fill="none" stroke="#707070"/></svg>