<svg xmlns="http://www.w3.org/2000/svg" viewBox="0 0 120.93 126.121"><path d="M120.43 60.823q0 8.592-6.265 17.273a166.677 166.677 0 0 1-17.184 19.6 144.494 144.494 0 0 1-18.974 15.753 125.421 125.421 0 0 1-14.051 8.592q-6.891 3.58-10.471 3.58a5.155 5.155 0 0 1-3.133-.984 3.425 3.425 0 0 1-1.343-2.954 6.581 6.581 0 0 1 2.148-4.922 15.6 15.6 0 0 1 5.728-3.312 33.982 33.982 0 0 1 5.011-1.436 26.48 26.48 0 0 0 7.34-2.323 88.51 88.51 0 0 0 14.231-9.4 110.489 110.489 0 0 0 12.8-11.367 103.239 103.239 0 0 0 11.724-14.588 24.252 24.252 0 0 0 4.028-13.157 5.683 5.683 0 0 0-3.58-5.459 20.347 20.347 0 0 0-8.771-1.7 61.017 61.017 0 0 0-24.165 4.654q-4.835 2.15-6.625 3.04-6.444 2.864-10.561 4.475-4.654 1.79-8.95 3.132t-5.728 1.88l.358 6.8q0 2.685.269 8.592t.269 11.1a91.35 91.35 0 0 1-1.79 20.048 10.108 10.108 0 0 1-1.611 3.58q-.9 1.074-3.4 1.074a4.986 4.986 0 0 1-3.043-1.074 3.24 3.24 0 0 1-1.432-2.685 59.586 59.586 0 0 1 1.611-6.086 35.836 35.836 0 0 0 1.609-9.836q0-13.962-1.253-35.621l-.537-8.234q-1.074-11.814-1.074-18.616 0-5.191.716-13.157t1.074-10.472a122.857 122.857 0 0 0-17.363 6.444 48.712 48.712 0 0 0-7.876 4.472q-4.475 2.864-6.086 2.864a3.219 3.219 0 0 1-2.506-1.253 4.517 4.517 0 0 1-1.078-3.043q0-3.4 11.993-8.771a202.348 202.348 0 0 1 26.134-9.487A218.78 218.78 0 0 1 61.177 2.29 112.858 112.858 0 0 1 81.404.5q9.487 0 15.841 3.67t6.355 10.293q0 15.752-17.184 32.578a101.848 101.848 0 0 1 13.962-1.074 27.88 27.88 0 0 1 14.141 3.4q5.911 3.401 5.911 11.456zM95.191 16.789a7.078 7.078 0 0 0-4.117-6.533q-4.117-2.238-11.1-2.238a125.913 125.913 0 0 0-18.437 1.7 115.843 115.843 0 0 0-17.184 3.67Q41.31 25.56 41.31 33.794q0 11.635 1.074 29.356a33.94 33.94 0 0 0 5.82-1.437q4.027-1.253 7.429-2.685 17-7.16 28.282-18.616t11.276-23.623z" fill="none" stroke="#707070"/></svg>