<svg xmlns="http://www.w3.org/2000/svg" viewBox="0 0 115.918 122.541"><path d="M115.418 32.72a48.194 48.194 0 0 1-8.055 26.492q-8.055 12.53-26.136 28.461-10.917 9.666-22.462 18.258t-19.238 12.172a6.073 6.073 0 0 1-1.616 2.952 4.627 4.627 0 0 1-3.222.984 3.5 3.5 0 0 1-2.327-.627 2.873 2.873 0 0 1-.716-2.238q0-1.074.806-8.95a183.873 183.873 0 0 0 .805-18.437q0-17.9-.537-32.4-.358-16.826-.358-23.628 0-10.561 2.148-17.363 1.611-4.3 5.728-4.3a6.121 6.121 0 0 1 2.6.537 1.722 1.722 0 0 1 1.159 1.622q-.179.9-1.88 6.265a33.813 33.813 0 0 0-1.7 10.2q0 13.425.537 29.356.358 20.406.358 28.282 0 13.425-.179 16.11 6.444-2.506 17.452-10.382t18.527-14.32q15.573-13.962 22.733-25.06a42 42 0 0 0 7.16-23.091q0-14.5-18.169-19.869t-47.524-5.37a178.763 178.763 0 0 0-23.985 2.148 52.121 52.121 0 0 0-8.95 1.79 14.283 14.283 0 0 1-3.759.9q-1.432 0-2.775-2.327A9.243 9.243 0 0 1 .5 6.233q0-.9 1.253-1.7a9.975 9.975 0 0 1 3.938-1.164q10.74-1.432 18.348-2.148T41.85.505q32.578 0 53.074 7.339t20.494 24.876z" fill="none" stroke="#707070"/></svg>