<svg xmlns="http://www.w3.org/2000/svg" viewBox="0 0 96.049 122.004"><path d="M95.549 2.65q0 2.148-3.043 3.759-4.833 2.685-15.126 5.728t-16.915 4.3Q50.083 18.4 39.612 19.564t-13.514 1.342q.179 10.382.537 21.39t.537 15.126q6.981-.9 20.943-3.4l6.8-1.074q11.277-1.969 17.363-7.16 3.222-2.506 4.654-2.506a2.367 2.367 0 0 1 2.058 1.342 5.323 5.323 0 0 1 .806 2.774q0 3.222-7.25 7.07a59.22 59.22 0 0 1-16.021 5.639q-7.337 1.611-16.466 3.043t-11.993 1.79q1.074 30.61 6.265 45.466a60.991 60.991 0 0 0 10.2 2.6 83.975 83.975 0 0 0 12.888.805 54.155 54.155 0 0 0 15.039-2.061 39.374 39.374 0 0 0 11.546-5.1q4.386-3.043 4.386-5.728a7.405 7.405 0 0 0-.537-2.774 17.6 17.6 0 0 0-1.432-2.775q-.358-.537-1.163-1.7a3.664 3.664 0 0 1-.805-1.879q0-1.79 3.938-1.79a6.267 6.267 0 0 1 4.922 2.417 7.974 7.974 0 0 1 2.059 5.28q0 5.728-5.1 11.277a37.02 37.02 0 0 1-13.962 9.04 53.045 53.045 0 0 1-19.6 3.491 112.449 112.449 0 0 1-17.9-1.164q-6.985-1.168-10.565-4.569-4.3-4.833-6-16.826t-2.947-32.041a71.332 71.332 0 0 1-7.61 1.521 47.1 47.1 0 0 1-6.354.626 4.722 4.722 0 0 1-3.491-1.342 4.5 4.5 0 0 1-1.345-3.311 4.757 4.757 0 0 1 .449-2.153 1.866 1.866 0 0 1 1.343-1.074q5.907-.716 8.592-.9l7.7-.9q-.716-23.091-1.432-37.59a40.743 40.743 0 0 0-4.3.179l-8.234.179a3.388 3.388 0 0 1-2.506-.895 2.737 2.737 0 0 1-.895-1.969q0-4.3 5.728-5.728 2.148-.358 5.459-.806a41.634 41.634 0 0 1 4.386-.448q3.4-3.759 7.518-3.759.716 0 1.163 1.164a5.456 5.456 0 0 1 .448 1.7q11.814-.537 28.1-2.685 10.74-1.432 33.115-6.8L93.755.486Q95.549.5 95.549 2.65z" fill="none" stroke="#707070"/></svg>