<svg xmlns="http://www.w3.org/2000/svg" viewBox="0 0 99.271 133.102"><path d="M97.518 46.861q0 5.549-3.938 6.086-5.012.537-23.718 4.564t-27.476 6.355q0 3.938.09 16.557t.448 21.391q.179 3.4.806 7.518t.805 5.907a77.154 77.154 0 0 1 1.074 7.7 15.021 15.021 0 0 1-1.88 5.818q-1.88 3.848-3.133 3.848a3.07 3.07 0 0 1-2.327-1.253 6.557 6.557 0 0 1-1.432-3.043q-1.79-8.055-2.506-26.134-.9-22.017-.895-34.368-1.074.179-3.491.626t-4.207.626a9.085 9.085 0 0 1-3.759-.895q-1.969-.9-1.969-2.148a2.483 2.483 0 0 1 .985-2.148 8.824 8.824 0 0 1 2.237-1.164q1.253-.447 1.79-.626 6.444-2.685 8.592-3.4l-1.435-39.92q-13.246 2.148-19.511 2.148-6.981 0-9.666-3.4A10.853 10.853 0 0 1 .5 11.24q0-1.611 2.327-1.611a38.775 38.775 0 0 1 4.207 1.253 22.144 22.144 0 0 0 6.713 1.253 145.3 145.3 0 0 0 18.258-1.79q0-.358.179-2.774a8.369 8.369 0 0 1 1.611-4.386 7.026 7.026 0 0 1 1.611-2.148A2.618 2.618 0 0 1 37.017.5q3.4 0 3.4 7.518 2.506-.537 11.367-2.148t20.317-3.043A163.179 163.179 0 0 1 91.969 1.39q6.8 0 6.8 2.685a14.433 14.433 0 0 1-1.522 5.549q-1.522 3.4-3.49 3.4a1.985 1.985 0 0 1-1.432-.806 4.589 4.589 0 0 0-1.074-.984 11.869 11.869 0 0 0-4.654-.716q-5.549 0-22.106 2.327T40.596 16.79l1.253 38.842q9.666-2.506 29.714-6.8t23.449-4.3a3.179 3.179 0 0 1 1.969.448 2.433 2.433 0 0 1 .537 1.881z" fill="none" stroke="#707070"/></svg>