<svg xmlns="http://www.w3.org/2000/svg" viewBox="0 0 117.171 159.415"><path d="M112.375 141.731a36.1 36.1 0 0 0 1.253 8.682 10.833 10.833 0 0 0 1.969 3.759 3.283 3.283 0 0 1 1.074 2.059 2.181 2.181 0 0 1-1.342 1.969 6.177 6.177 0 0 1-2.953.716 9.651 9.651 0 0 1-6.534-2.238 8.154 8.154 0 0 1-2.6-6.534q0-22.554.358-36.874l.358-15.931q.537-16.647.537-24.881-17.896 39.917-35.081 60.234T30.93 153.005q-15.752 0-23.091-9.666T.5 113.27a124.575 124.575 0 0 1 12.351-53.611q12.351-26.223 31.773-42.691T83.914.5q6.265 0 8.5 3.938a16.435 16.435 0 0 1 2.237 8.234 24.736 24.736 0 0 1-.805 7.071q-.806 2.6-1.88 2.6-.9 0-1.342-1.611a47.975 47.975 0 0 1-.984-5.728 14.232 14.232 0 0 0-1.79-5.818q-1.253-1.879-4.475-1.879-16.468 0-33.921 16.11t-29 40.723q-11.54 24.607-11.54 48.056 0 14.857 4.923 23.181t17.809 8.328q13.962 0 25.955-10.919a114.186 114.186 0 0 0 21.391-26.94q9.4-16.02 22.285-42.512a234.894 234.894 0 0 0-25.6 7.16l-6.981 2.327-6.623 2.148q-6.623 2.327-10.74 3.49a26.058 26.058 0 0 1-6.8 1.164 3.062 3.062 0 0 1-2.774-1.7 7.2 7.2 0 0 1-.985-3.67q0-2.506 7.339-5.1a199.3 199.3 0 0 1 22.017-5.817q5.728-1.253 16.468-4.3 1.79-.537 10.829-2.864t12.619-2.327h2.059a2.517 2.517 0 0 1 2.416 1.342 9.351 9.351 0 0 1 .716 4.206q0 1.611-2.148 2.864l-.175 13.781q-.537 13.962-.537 30.43v35.263z" fill="none" stroke="#707070"/></svg>