<svg xmlns="http://www.w3.org/2000/svg" viewBox="0 0 116.455 172.303"><path d="M115.955 98.055q0 2.864-4.117 4.117a30.5 30.5 0 0 1-7.786 1.343q-4.565.268-6 .268-.179 5.549-.716 12.351t-.895 11.277l-.537 5.549-.358 5.728-1.071 13.783q-.716 9.129-5.907 9.129-1.969 0-3.849-4.564a20.682 20.682 0 0 1-1.88-7.429 7.38 7.38 0 0 1 1.433-2.864 11.921 11.921 0 0 0 1.79-5.37q.716-5.012 1.611-16.647t1.249-19.511q-6.981.537-15.036 1.611l-16.11 1.611q-12.53 1.253-19.69 1.611-.716 11.814-1.611 28.819t-.9 20.764a20.88 20.88 0 0 0 .448 3.759 20.474 20.474 0 0 1 .448 3.58q0 1.611-2.417 3.222a7.753 7.753 0 0 1-3.849 1.611q-1.79 0-2.953-2.327a11.855 11.855 0 0 1-1.164-5.37q0-1.611.358-5.281t.537-6.355q.716-4.833.895-7.876.904-10.56 1.444-20.405t.713-13.246a124.086 124.086 0 0 1-21.3 1.969 9.849 9.849 0 0 1-5.818-1.7A5.646 5.646 0 0 1 .5 106.289a4.741 4.741 0 0 1 1.163-3.491q1.164-1.163 4.744-1.163l9.487.179q9.308.358 15.036.358.895-15.215.895-24.344 0-20.764-.358-37.232v-6.623a5.428 5.428 0 0 1 2.059-4.385 7.233 7.233 0 0 1 4.743-1.7q1.969 0 2.685 3.043a29.754 29.754 0 0 1 .716 6.8q0 3.938-.9 16.11-1.074 20.764-1.074 22.017l-.895 25.6q15.041-.36 51.021-4.656.716-5.191 2.506-27.208.716-11.635 1.253-17.005l1.074-13.962q2.327-26.313 2.327-32.936a4.582 4.582 0 0 1 1.79-3.759A6.4 6.4 0 0 1 102.889.5q3.222 0 3.222 6.265 0 3.938-1.79 20.943-1.969 22.2-2.148 24.7-1.075 13.785-2.059 26.315t-1.343 16.826a24.942 24.942 0 0 0 5.728-1.611 17.172 17.172 0 0 1 5.012-1.074q1.79 0 4.117 2.148t2.327 3.043z" fill="none" stroke="#707070"/></svg>