<svg xmlns="http://www.w3.org/2000/svg" viewBox="0 0 107.505 128.09"><path d="M107.005 5.514a4.947 4.947 0 0 1-3.4 4.833 52.46 52.46 0 0 1-10.024 2.685q-7.339 1.432-18.616 2.775t-18.258 1.7q-.537 7.7-1.432 44.392T54.2 116.134q9.666-.179 25.42-1.253 13.246-.716 14.857-.716a11.839 11.839 0 0 1 5.818 1.432 4.764 4.764 0 0 1 2.6 4.475 6.1 6.1 0 0 1-.805 3.58q-.806 1.074-3.491 1.074-1.074 0-5.907-.537a31.855 31.855 0 0 0-6.086-.716q-8.413 0-33.652 1.074a6.106 6.106 0 0 1-2.058 1.879 4.462 4.462 0 0 1-2.059.627 4.766 4.766 0 0 1-2.155-.539 2.138 2.138 0 0 1-1.253-1.611l-8.055.9a180.343 180.343 0 0 1-20.764 1.787q-5.907 0-8.95-2.506-1.611-1.432-1.611-5.191a4.992 4.992 0 0 1 1.163-2.685 3.154 3.154 0 0 1 2.417-1.611 15.451 15.451 0 0 1 2.774.985 12.12 12.12 0 0 0 4.564.984q6.623 0 19.511-.716l8.235-.536 1.074-26.313q.179-4.117.358-7.429t.179-5.639l1.79-58.533q-18.616 1.253-17.721 1.253-18.258 1.432-21.48 1.432a9.514 9.514 0 0 1-5.728-1.971A5.98 5.98 0 0 1 .5 14.104a4.8 4.8 0 0 1 1.164-3.4 4.068 4.068 0 0 1 3.133-1.253 23.068 23.068 0 0 1 2.864.179l2.864.358a43.814 43.814 0 0 0 8.592.895q3.938 0 15.036-.626t14.857-.806a6.111 6.111 0 0 1 1.611-3.849 4.923 4.923 0 0 1 3.759-1.521q1.074 0 1.79 1.432a7.1 7.1 0 0 1 .716 3.222q10.382-.358 37.411-4.654a13.4 13.4 0 0 0 4.743-1.969 13.837 13.837 0 0 1 2.954-1.611 5.062 5.062 0 0 1 3.4 1.432 4.591 4.591 0 0 1 1.611 3.581z" fill="none" stroke="#707070"/></svg>