<svg xmlns="http://www.w3.org/2000/svg" viewBox="0 0 110.906 133.997"><path d="M110.406 11.598a6.5 6.5 0 0 1-2.148 4.654 9.359 9.359 0 0 1-4.833 2.685 109.339 109.339 0 0 1-22.017 2.327l.716 5.549q2.685 19.69 4.566 37.412a322.772 322.772 0 0 1 1.88 34.01q0 19.332-7.339 27.3t-23.63 7.962q-10.382 0-23.986-4.833a90.362 90.362 0 0 1-23.359-11.993Q.5 109.511.5 103.425a7.177 7.177 0 0 1 2.69-5.191 27.928 27.928 0 0 1 6.086-4.3q3.4-1.79 4.833-1.79 2.327 0 3.043 1.253a4.762 4.762 0 0 1 .9 2.148q0 .895-1.253 1.611a22.479 22.479 0 0 0-3.938 2.327 3.3 3.3 0 0 0-1.074 2.685q0 4.3 7.249 9.666a70.128 70.128 0 0 0 17.801 9.222 57.739 57.739 0 0 0 19.69 3.849 37.336 37.336 0 0 0 12.709-1.79q4.833-1.79 7.518-7.608t2.685-17.452q0-19.511-6.086-63.9-.537-4.117-.984-7.428t-.627-5.638q-12.172 0-19.511-.179a219.178 219.178 0 0 1-22.912-1.611 7.38 7.38 0 0 1-4.385-2.059 5.714 5.714 0 0 1-1.7-4.206 3.094 3.094 0 0 1 1.074-2.148 3.435 3.435 0 0 1 2.506-1.074 72.79 72.79 0 0 1 8.234.537q12.888 1.253 27.924 1.253h7.16a31.4 31.4 0 0 1-.537-6.623 4.612 4.612 0 0 1 2.059-3.043A6.3 6.3 0 0 1 75.502.504q2.148 0 3.4 3.222a71.412 71.412 0 0 1 1.79 7.876 111.069 111.069 0 0 0 13.336-.626q4.922-.626 5.638-.806a59.809 59.809 0 0 1 6.623-.716 7.064 7.064 0 0 1 2.953.537 1.722 1.722 0 0 1 1.164 1.607z" fill="none" stroke="#707070"/></svg>