<svg xmlns="http://www.w3.org/2000/svg" viewBox="0 0 87.815 136.324"><path d="M87.315 115.776a7.846 7.846 0 0 1-1.074 4.117q-1.074 1.79-2.327 1.79-8.771 0-37.411-11.993l-4.833-2.148q-10.2-4.3-15.841-6.444t-10.83-3.58q0 22.2-1.074 31.146-1.969 7.16-5.191 7.16a5.213 5.213 0 0 1-2.954-.895 2.7 2.7 0 0 1-1.342-2.327q0-3.222.537-8.771 1.074-11.456 1.074-19.69v-7.518a13.176 13.176 0 0 1-2.6-2.237 3.437 3.437 0 0 1-.806-2.237 4.883 4.883 0 0 1 .985-2.954 17.7 17.7 0 0 1 2.238-2.506 15.68 15.68 0 0 0 1.79-1.88q.179-3.759.179-13.067a199.287 199.287 0 0 0-6.623-49.225l-.716-3.58a4.542 4.542 0 0 1 2.059-3.938 8.1 8.1 0 0 1 4.743-1.432q1.969 0 4.028 7.7a131 131 0 0 1 3.311 19.6 228.116 228.116 0 0 1 1.253 23.9v11.982q2.506-2.685 11.277-12.351t17.188-19.327q14.141-16.647 21.834-29.714 1.969-3.58 4.833-9.308Q73.707.5 74.422.5q1.969 0 1.969 4.3a30.68 30.68 0 0 1-1.611 9.934 59.613 59.613 0 0 1-4.654 10.114 152.769 152.769 0 0 1-11.537 17.269q-6.534 8.5-16.557 19.243-3.759 3.938-6.623 6.8t-5.02 5.189q-9.3 9.312-14.853 15.577 2.327.9 10.83 3.938t22.106 7.7q9.666 3.4 16.11 5.459t11.1 3.67q1.074.358 2.506.806t3.043.984q6.084 1.966 6.084 4.293z" fill="none" stroke="#707070"/></svg>