<svg xmlns="http://www.w3.org/2000/svg" viewBox="0 0 127.911 124.331"><path d="M127.407 114.523q0 1.253-2.059 2.775a7.5 7.5 0 0 1-4.564 1.522 16.975 16.975 0 0 1-3.4-.269 2.424 2.424 0 0 1-1.79-1.521q-1.611-2.685-3.759-15.931t-4.117-30.43q-4.3-52.447-6.623-53.521-1.969 4.3-6.086 16.2t-9.484 31.055q-5.907 20.585-8.95 28.372t-5.368 9.576a20.94 20.94 0 0 1-3.491 2.417 7.463 7.463 0 0 1-3.491 1.163 4 4 0 0 1-2.327-.448 7.028 7.028 0 0 1-1.254-2.773q-.716-2.685-3.4-16.737t-4.118-25.329l-1.074-7.518q-3.045-23.27-4.117-25.955-3.4 3.043-6.444 13.515T34.507 70.31q-3.756 14.857-9.126 48.33-.174 1.97-2.685 3.58a8.547 8.547 0 0 1-4.475 1.611q-2.864 0-3.222-5.549-.179-5.549-2.416-23.986t-4.028-32.4a308.291 308.291 0 0 0-6.8-36.874 56.881 56.881 0 0 1-1.253-6.086 5.08 5.08 0 0 1 2.6-4.385 10.088 10.088 0 0 1 5.639-1.7q1.432 0 3.043 11.1t3.4 27.924l.537 5.907q.716 5.907 1.611 12.351 3.4 27.387 3.759 34.368 3.58-20.764 8.055-41.707l1.611-7.876q3.938-18.974 8.592-28.729t11.993-9.756q2.327 0 5.191 12.082a217.284 217.284 0 0 1 4.474 28.195q1.253 11.456 3.222 22.375t3.578 15.211q1.074-3.043 4.385-13.425t6.176-19.69A521.661 521.661 0 0 1 96.984 7.66a20.066 20.066 0 0 1 3.491-5.46q1.7-1.7 6-1.7 2.327 0 5.012 20.406t4.475 47.256q4.826 37.948 8.764 41.348a6.651 6.651 0 0 1 2.681 5.013z" fill="none" stroke="#707070"/></svg>