<svg xmlns="http://www.w3.org/2000/svg" viewBox="0 0 83.698 109.295"><path d="M83.198 106.647q0 2.153-6.981 2.153-1.255 0-16.736-19.248T33.973 56.706q-1.432-1.969-9.129-13.067Q13.567 27.171 10.882 23.77l-.358 13.783-.179 13.425q0 12.709-.268 27.566t-.627 23.628a6.416 6.416 0 0 1-1.879 3.938 4.876 4.876 0 0 1-3.491 1.79 3.134 3.134 0 0 1-2.774-1.164Q.5 105.572.5 102.171q0-2.148.716-13.246Q2.827 68.34 2.827 54.378q0-11.1.358-21.033t.358-12.261l.179-5.191v-.537a6.633 6.633 0 0 1 .627-3.132 2.676 2.676 0 0 1 2.6-1.164h.895q1.969 0 7.787 7.071t14.762 19.243q1.969 2.506 3.759 4.926t3.4 4.564q10.2 13.067 10.74 13.783 25.418 32.4 27.745 36.874-.358-1.432-1.253-6.623t-1.7-13.6q-.806-8.413-.806-17.363 0-15.931-3.043-42.065-.895-8.592-.895-10.561 0-6.8 7.7-6.8 1.79 0 2.685 3.669t1.253 15.483q.358 11.814.358 37.769 0 8.234.626 16.11t1.163 13.962q.9 8.413.9 12.709z" fill="none" stroke="#707070"/></svg>