<svg xmlns="http://www.w3.org/2000/svg" viewBox="0 0 108.579 116.097"><path d="M108.079 42.744a66.155 66.155 0 0 1-10.382 35.263 84.235 84.235 0 0 1-26.671 27.208q-16.289 10.382-32.936 10.382a42.492 42.492 0 0 1-18.258-4.028 34.163 34.163 0 0 1-13.962-11.9Q.5 91.793.5 80.695q0-18.974 9.845-39.291A145.073 145.073 0 0 1 37.732 3.188a9.98 9.98 0 0 1 3.4-2.148 11.9 11.9 0 0 1 3.759-.537 7.41 7.41 0 0 1 3.49.895q1.7.895 1.7 2.148a5.425 5.425 0 0 1-.626 2.059q-.627 1.342-.806 1.7a15.3 15.3 0 0 0 2.6-.269 42.363 42.363 0 0 1 6-.268 78.985 78.985 0 0 1 14.052 1.7 66.693 66.693 0 0 1 12.977 3.491q11.635 5.191 17.721 13.335a28.617 28.617 0 0 1 6.08 17.45zm-7.7 3.759q0-10.382-4.833-16.916T81.229 18.758a32.018 32.018 0 0 0-13.069-2.324q-2.506 0-6.8.358l-6.623.179q-8.592 0-8.592-3.58a14.177 14.177 0 0 1 .179-2.327 5.95 5.95 0 0 1 .358-1.432 8.618 8.618 0 0 0-6.086 2.148 118.568 118.568 0 0 0-22.643 32.4Q9.987 61.364 9.987 77.653q0 15.215 7.608 22.106t20.853 6.888q15.036 0 29.445-8.592a70.655 70.655 0 0 0 23.449-22.554q9.04-13.967 9.04-28.998z" fill="none" stroke="#707070"/></svg>