<svg xmlns="http://www.w3.org/2000/svg" viewBox="0 0 98.734 111.801"><path d="M98.234 17.326q0 10.561-8.592 18.168t-23.986 14.41q-5.549 2.506-11.276 4.658t-7.518 2.685q.895 21.838.9 37.232a23.8 23.8 0 0 0 1.158 8.14 16.224 16.224 0 0 1 1.16 4.028 3.927 3.927 0 0 1-1.966 3.315 7.2 7.2 0 0 1-4.117 1.343q-2.685 0-3.4-3.759 0-.358-.448-3.222a55.434 55.434 0 0 1-.448-8.062q0-13.962-1.074-45.824-.537-16.11-.537-22.912 0-5.728.179-10.65t.179-6.713a189.966 189.966 0 0 0-19.511 6.265q-2.685 1.253-7.518 4.117-2.148 1.253-4.207 2.327a7.67 7.67 0 0 1-3.132 1.077 3.219 3.219 0 0 1-2.506-1.253A4.517 4.517 0 0 1 .5 19.653q0-2.327 6.8-5.818a117.022 117.022 0 0 1 16.56-6.712A149.19 149.19 0 0 1 41.85 2.29 118.38 118.38 0 0 1 63.33.5q16.289 0 25.6 4.206t9.304 12.62zM90 18.762q0-6.086-7.7-8.592T63.329 7.662a135.6 135.6 0 0 0-16.826 1.074q-.179 1.432-.448 6.623t-.269 9.845l.179 13.067q.179 4.3.179 10.919 3.759-.358 15.931-5.37a91.275 91.275 0 0 0 19.87-11.548Q90 25.918 90 18.762z" fill="none" stroke="#707070"/></svg>