<svg xmlns="http://www.w3.org/2000/svg" viewBox="0 0 109.295 149.033"><path d="M108.795 47.756q0 18.974-6.444 32.22a100.288 100.288 0 0 1-18.616 25.776l-3.043 2.864q.358 1.969.716 3.67t.716 3.311a140.117 140.117 0 0 0 4.475 13.872q2.506 6.533 3.938 6.534 2.148 0 5.012-7.16a5.018 5.018 0 0 1 1.522-2.327 3.309 3.309 0 0 1 1.879-.537 3.177 3.177 0 0 1 1.432.358q.716.358.716.9a40.334 40.334 0 0 1-1.79 6.444 72.714 72.714 0 0 1-4.117 10.2q-2.327 4.651-4.475 4.651a5.807 5.807 0 0 1-5.012-2.5 22.549 22.549 0 0 1-2.774-5.1q-.985-2.6-1.342-3.491-2.328-4.839-6.266-17.727l-1.611-5.191q-11.277 7.876-18.974 10.65a53.307 53.307 0 0 1-18.079 2.775 32.728 32.728 0 0 1-18.887-5.549q-8.145-5.549-12.709-16.021T.5 81.408a82.958 82.958 0 0 1 9.129-37.321 154.546 154.546 0 0 1 22.554-33.563q.537-.716 2.506-3.043a17.3 17.3 0 0 1 4.382-3.759 9.853 9.853 0 0 1 5.1-1.432 28.231 28.231 0 0 1 5.549.537A6.85 6.85 0 0 1 51.6.948 5.618 5.618 0 0 1 54.2.5a71.1 71.1 0 0 1 26.4 4.922 45.657 45.657 0 0 1 20.317 15.573q7.878 10.651 7.878 26.761zm-7.7 1.611q0-13.783-6.534-22.733a37.49 37.49 0 0 0-17.27-13.067A65.5 65.5 0 0 0 53.663 9.45a5.025 5.025 0 0 1-1.7 3.759 6.117 6.117 0 0 1-4.386 1.611 50.418 50.418 0 0 1-6.981-.716A109.315 109.315 0 0 0 17.863 45.16 84.89 84.89 0 0 0 9.45 82.84q0 18.079 7.429 27.387t20.137 9.305q10.74 0 17.542-2.685t17.363-10.379l-2.327-11.993Q64.94 71.563 64.94 69.952a5.393 5.393 0 0 1 1.431-3.849q1.432-1.521 4.654-1.522 1.432 0 2.953 6.623t3.67 19.69l1.611 9.487a101.472 101.472 0 0 0 16.022-22.549q5.817-11.46 5.817-28.465z" fill="none" stroke="#707070"/></svg>