<svg xmlns="http://www.w3.org/2000/svg" viewBox="0 0 144.2 133.639"><path d="M143.7 110.764a10.763 10.763 0 0 1-1.79 5.191q-1.79 3.043-3.759 3.043a9.3 9.3 0 0 1-3.4-.627 44.133 44.133 0 0 1-4.837-2.416q-11.274-6.623-29.532-12.888-8.055-2.685-19.068-5.639t-17.269-4.385l1.253 23.091a30.356 30.356 0 0 0 1.253 8.145 19.43 19.43 0 0 1 1.074 4.206 3.927 3.927 0 0 1-1.969 3.312 7.2 7.2 0 0 1-4.117 1.343q-2.685 0-3.4-3.759 0-.358-.447-3.222a55.434 55.434 0 0 1-.448-8.055q0-3.4-.716-14.5-.179-3.759-.358-7.25t-.179-6.175q-.537-.537-1.343-1.253a5.461 5.461 0 0 1-1.342-1.969 28.3 28.3 0 0 1-.9-3.4 15.078 15.078 0 0 1-.358-2.685 2.661 2.661 0 0 1 .716-1.969 12.42 12.42 0 0 1 2.15-1.612q-1.074-44.75-1.074-51.194 0-5.728.179-10.561t.179-6.444q-1.074.179-6.444.9t-8.59 1.427a127.148 127.148 0 0 0-17.45 5.101 107.732 107.732 0 0 0-11.545 5.46 18.131 18.131 0 0 1-3.132 1.7 7.734 7.734 0 0 1-2.954.626 3.149 3.149 0 0 1-2.506-1.342 5.133 5.133 0 0 1-1.074-3.311q0-3.4 11.456-7.876A160.193 160.193 0 0 1 36.84 4.438a179.455 179.455 0 0 1 19.153-2.775Q67.628.5 77.652.5q17.184 0 29.267 3.759t18.255 10.561a22.506 22.506 0 0 1 6.175 15.573 29.986 29.986 0 0 1-6.444 19.332 56.763 56.763 0 0 1-17.091 13.962A287.52 287.52 0 0 1 78.902 77.11q-4.654 2.15-9.218 3.94t-6.175 2.506a5.43 5.43 0 0 0 .179 1.611q19.331 4.296 38.126 9.843l3.759 1.074q19.511 5.907 28.819 9.219t9.308 5.461zm-21.3-80.371q0-5.907-5.191-10.919t-15.662-8.144Q91.074 8.197 76.214 8.197q-11.1 0-13.962.358-.179 1.253-.447 5.907t-.268 9.308l.716 28.64.716 22.2a41.568 41.568 0 0 0 6.354-1.7 80.543 80.543 0 0 0 7.966-2.953q22.735-9.134 33.925-18.353t11.185-21.211z" fill="none" stroke="#707070"/></svg>