<svg xmlns="http://www.w3.org/2000/svg" viewBox="0 0 86.025 131.491"><path d="M85.525 93.759q0 8.95-6 17.632a43.957 43.957 0 0 1-16.823 14.141 53.923 53.923 0 0 1-24.612 5.46q-11.634-.001-18.434-1.88t-6.8-5.281q0-1.79 2.6-6t4.028-4.207q2.148 0 2.148.895a2.056 2.056 0 0 1-.626 1.253 2.187 2.187 0 0 0-.627 1.432q0 .537 2.238 1.611a30.061 30.061 0 0 0 6.881 1.969 60.763 60.763 0 0 0 11.277.9 39.805 39.805 0 0 0 18.527-4.118 32.623 32.623 0 0 0 12.261-10.382q4.3-6.265 4.3-12.172 0-7.7-7.428-13.246t-23.9-10.561q-15.932-5.191-24.614-8.682A43.957 43.957 0 0 1 5.87 53.931 16.509 16.509 0 0 1 .5 41.491q0-9.845 11.1-19.422T38.987 6.496q16.289-6 30.251-6 7.16 0 7.7 2.864a35.142 35.142 0 0 1 .537 6.444q0 2.685-1.969 2.685a4.462 4.462 0 0 1-2.058-.627 20.493 20.493 0 0 0-2.059-.984q-1.074-.358-2.506-.716a18.019 18.019 0 0 0-4.117-.358q-9.308 0-22.375 4.833a89.29 89.29 0 0 0-22.648 11.997q-9.577 7.16-9.577 13.783a12.128 12.128 0 0 0 4.39 9.308 36.955 36.955 0 0 0 11.72 6.713q7.339 2.774 20.764 6.891 19.69 5.728 29.088 12.888t9.397 17.542z" fill="none" stroke="#707070"/></svg>