<svg xmlns="http://www.w3.org/2000/svg" viewBox="0 0 123.615 120.572"><path d="M123.115 11.419a4.707 4.707 0 0 1-1.253 2.953 3.985 3.985 0 0 1-3.222 1.521 22.552 22.552 0 0 1-3.67-.985 19.488 19.488 0 0 0-5.817-.984q-8.592 0-19.511.895a134.749 134.749 0 0 0-18.079 2.506q.537 8.592.985 27.118T73 83.377q0 8.592-.269 19.153t-.81 13.067a4.742 4.742 0 0 1-2.421 3.222 8 8 0 0 1-4.2 1.253 2.711 2.711 0 0 1-2.15-1.074 3.8 3.8 0 0 1-.9-2.506l.179-6.265q1.074-13.962 1.074-34.368 0-14.678-.358-33.562t-.716-23.359q-35.8 3.938-47.793 7.339a15.236 15.236 0 0 1-4.833.716 10.212 10.212 0 0 1-6.265-2.327Q.5 22.338.5 19.653a3.033 3.033 0 0 1 1.074-2.6 4.349 4.349 0 0 1 2.685-.806q10.2-.537 17.184-1.074 15.931-1.432 40.1-4.475a78.764 78.764 0 0 1 .269-7.876Q62.08.495 62.975.495a8.394 8.394 0 0 1 6.086 2.685 5.8 5.8 0 0 1 .9 2.774 23.961 23.961 0 0 1 .358 2.954 111.671 111.671 0 0 0 12.888-1.79q19.332-3.043 26.492-3.043 8.592 0 11.456 2.148 1.96 1.437 1.96 5.196z" fill="none" stroke="#707070"/></svg>