<svg xmlns="http://www.w3.org/2000/svg" viewBox="0 0 99.987 124.51"><path d="M99.487 110.943a4.658 4.658 0 0 1-1.79 3.67 6.669 6.669 0 0 1-4.475 1.522q-3.58 0-6.534-7.518a55.911 55.911 0 0 1-3.67-15.573q-.716-6.8-1.432-31.683-.358-10.382-.537-12.888-12.353 30.071-28.191 52.804t-29.8 22.733q-6.981 0-12.082-8.413T3.185 92.953A168.807 168.807 0 0 1 .496 61.718q0-13.783 1.611-31.236t3.938-25.15a8.754 8.754 0 0 1 2.059-3.49A4.293 4.293 0 0 1 11.236.5q4.475 0 4.475 3.4 0 .537-3.4 12.888t-3.4 46.182q0 22.375 4.207 36.784t11.9 14.41q7.518 0 17.9-12.262a179.723 179.723 0 0 0 19.785-29.265q9.393-17.005 13.693-29.893 2.864-9.487 3.759-28.461.537-7.339.9-7.7a5.171 5.171 0 0 1 4.3-1.79q3.222 0 3.222 8.771 0 10.561.626 40.1t1.522 37.411a31.21 31.21 0 0 0 2.6 10.382 30.7 30.7 0 0 0 4.028 6.265q2.134 2.505 2.134 3.221z" fill="none" stroke="#707070"/></svg>