<svg xmlns="http://www.w3.org/2000/svg" viewBox="0 0 111.622 113.591"><path d="M111.125 4.796q0 12.888-1.074 27.566t-2.326 25.955a181.391 181.391 0 0 1-3.4 21.3 108.96 108.96 0 0 1-6.091 19.962q-3.58 8.321-7.339 8.321-2.327 0-5.37-8.055t-7.876-23.628l-3.043-10.024q-3.222-10.382-7.16-21.032T61.36 30.035l-7.7 26.313q-10.558 36.158-15.391 49.583-.179.358-.985 2.6a6.291 6.291 0 0 1-2.775 3.4 10.136 10.136 0 0 1-5.191 1.164q-.716 0-2.954-9.308t-4.563-20.589q-5.907-25.6-6.265-27.029-4.3-17.542-7.071-26.313T3.543 19.295Q.5 16.968.5 14.279q0-1.253 1.88-2.774a6.763 6.763 0 0 1 4.386-1.522 16.974 16.974 0 0 1 3.4.269 2.931 2.931 0 0 1 1.969 1.527q2.506 4.117 9.666 34.726.716 2.327 1.79 6.981 3.759 15.573 6.265 26.85 1.432 5.728 2.417 10.292t1.7 6.892q.179-1.611 3.58-12.53 5.907-18.258 9.129-30.967 3.4-12.888 6.265-21.39t4.478-10.654a9.848 9.848 0 0 1 2.953-2.237 7.881 7.881 0 0 1 3.67-.984 2.5 2.5 0 0 1 1.969.805 7.552 7.552 0 0 1 1.253 2.059 17.95 17.95 0 0 0 1.074 2.148 161.194 161.194 0 0 1 5.817 15.036q4.027 11.456 7.25 22.554l2.506 8.234q5.725 19.869 8.408 26.492 6.265-12.53 8.592-41.886a297.777 297.777 0 0 0 1.255-31.321L101.993 4.8a7.4 7.4 0 0 1 .537-3.312q.537-.984 2.506-.984a7.2 7.2 0 0 1 4.117 1.342 3.7 3.7 0 0 1 1.972 2.95z" fill="none" stroke="#707070"/></svg>