<svg xmlns="http://www.w3.org/2000/svg" viewBox="0 0 70.631 127.374"><path d="M69.595 91.971a37.661 37.661 0 0 1-1.7 7.966 73.582 73.582 0 0 1-3.939 10.827q-2.238 4.833-4.207 4.833-3.043 0-12.619-16.021a202.344 202.344 0 0 1-14.235-27.655q-4.833 8.95-9.487 19.332t-4.65 13.246a3.06 3.06 0 0 0 .537 1.432 3.149 3.149 0 0 0 1.253 1.253 5.467 5.467 0 0 0 1.074.627 1.33 1.33 0 0 1 .9 1.164 5.036 5.036 0 0 1-1.347 2.596q-1.343 1.7-1.7 2.238-.537.716-1.253 1.611a25.057 25.057 0 0 0-1.611 2.327q-.716 1.074-3.222 5.1t-3.581 4.024a4.079 4.079 0 0 1-3.4-1.611 6.811 6.811 0 0 1-1.254-4.289q0-6.086 7.518-24.7t15.215-34.374Q14.462 31.288 9.808 21.98l-3.938-7.7q-2.148-3.938-3.759-7.16A13.628 13.628 0 0 1 .495 3.006Q.495.5 2.285.5q1.611 0 5.281 3.848a44.5 44.5 0 0 1 6.892 9.935q3.58 6.623 9.487 18.885t8.95 19.779q18.8-35.263 21.122-38.664a21.916 21.916 0 0 1 4.478-5.012q1.79-1.253 6.444-1.253a11.074 11.074 0 0 1 3.669.537q1.522.537 1.521 1.253 0 .895-3.222 3.759a37.246 37.246 0 0 0-5.547 5.904q-2.148 2.864-8.413 13.962T41.495 54.379l-3.938 7.16a289.777 289.777 0 0 0 14.048 27.387q7.07 11.993 9.576 11.993a2.081 2.081 0 0 0 1.79-1.343 40.377 40.377 0 0 0 1.969-4.922q.358-.895.985-3.133t1.521-2.238a2.423 2.423 0 0 1 1.7.448 3.54 3.54 0 0 1 .449 2.24z" fill="none" stroke="#707070"/></svg>