<svg xmlns="http://www.w3.org/2000/svg" viewBox="0 0 79.939 123.436"><path d="M79.439 4.975a21.418 21.418 0 0 1-1.074 6.444q-1.074 3.4-3.58 10.024-1.969 4.65-5.012 13.425A288.373 288.373 0 0 0 57.78 85.883q-.537 4.654-1.074 10.024t-.537 9.129a7.2 7.2 0 0 0 1.342 4.117 7.161 7.161 0 0 1 1.343 2.506q0 1.074-2.327 3.849a38.165 38.165 0 0 1-5.191 5.1q-2.864 2.327-4.654 2.327-3.58 0-3.58-3.043 0-3.938 4.475-26.94t7.517-35.351a63.005 63.005 0 0 1-7.7 7.518 13.156 13.156 0 0 1-8.413 2.685q-7.16 0-14.5-11.367a221.525 221.525 0 0 1-14.678-27.3l-1.79-3.58a75 75 0 0 0-5.012-8.95q-2.506-3.759-2.506-4.3 0-.895 1.342-1.342a9.294 9.294 0 0 1 2.954-.448q5.907 0 10.561 11.277a248.674 248.674 0 0 0 12.8 26.582q6.354 11.188 13.156 11.188a11.454 11.454 0 0 0 7.876-3.043 25.1 25.1 0 0 0 5.549-7.16q1.969-3.759 4.744-10.74t4.206-11.456q5.728-17.184 6.265-19.869a30.453 30.453 0 0 1 1.611-5.281A2.412 2.412 0 0 1 73.886.493a6.173 6.173 0 0 1 3.759 1.343 3.871 3.871 0 0 1 1.794 3.139z" fill="none" stroke="#707070"/></svg>