<svg xmlns="http://www.w3.org/2000/svg" viewBox="0 0 85.488 118.603"><path d="M67.446 37.016a6.89 6.89 0 0 1-1.074 3.312 11.088 11.088 0 0 1-2.327 2.949 16.148 16.148 0 0 1-7.249 3.491q-4.743 1.167-15.663 3.136-4.117 6.8-14.32 28.551t-10.2 24.433q0 3.043 10.113 4.744a116.191 116.191 0 0 0 19.242 1.7q6.265 0 14.231-.627a74.971 74.971 0 0 0 9.935-1.164 25.032 25.032 0 0 0 9.218-4.3q3.311-2.685 4.028-2.685.895 0 1.253 1.163a18.643 18.643 0 0 1 .358 4.565q0 11.814-37.769 11.814a105.511 105.511 0 0 1-27.029-3.4q-12.891-3.397-12.891-9.121 0-4.117 8.145-21.391t16.557-33.209a46.065 46.065 0 0 0-8.051 1.88q-4.117 1.343-5.012 1.7-2.685.895-5.37 1.969a14.955 14.955 0 0 1-3.222 1.074 5.5 5.5 0 0 1-4.121-2.323 7.062 7.062 0 0 1-1.969-4.475 2.037 2.037 0 0 1 1.521-1.879 31.169 31.169 0 0 1 5.639-1.346l25.239-4.3q6.086-10.561 10.919-20.5t4.833-12.619q0-1.074-2.864-1.074T34.51 10.877l-6.623.9Q7.302 14.999 4.259 14.999.5 14.999.5 13.567q0-1.79 2.417-3.58a17.3 17.3 0 0 1 6.892-2.685l4.475-.9q12.169-2.325 14.856-2.68 12.172-1.611 13.783-1.969Q51.694.5 53.663.5a15.085 15.085 0 0 1 5.817 1.074q2.6 1.074 2.6 2.864 0 2.327-5.28 14.589T45.429 42.386a87.5 87.5 0 0 0 16.824-5.728 25.319 25.319 0 0 1 3.58-1.253 1.547 1.547 0 0 1 1.074.537 1.547 1.547 0 0 1 .539 1.074z" fill="none" stroke="#707070"/></svg>