<svg xmlns="http://www.w3.org/2000/svg" viewBox="0 0 131.323 145.301"><path d="M59.234 130.033q-26.57 0-42.74-17.57Q.5 94.895.5 66.751q0-30.329 16.344-48.246 16.432-18 44.488-18 25.871 0 41.778 17.48t15.907 45.711q0 30.678-16.257 48.508a48.245 48.245 0 0 1-8.216 7.342l35.223 25.259H103.11l-23.598-17.659a67.94 67.94 0 0 1-20.278 2.887zm1.05-116.247q-19.753 0-32.077 14.247T15.884 65.44q0 23.074 11.974 37.321 12.06 14.072 31.376 14.072 20.627 0 32.514-13.46t11.887-37.67q0-24.91-11.537-38.37Q80.56 13.786 60.284 13.786z" fill="none" stroke="#707070"/></svg>