<svg xmlns="http://www.w3.org/2000/svg" viewBox="0 0 91.251 126.335"><path d="M90.349 125.835H72.868L51.892 90.699a76.525 76.525 0 0 0-5.594-8.347 31.888 31.888 0 0 0-5.55-5.637 19.223 19.223 0 0 0-6.118-3.19 25.158 25.158 0 0 0-7.385-1.005H15.183v53.315H.5V.5h37.408a53.311 53.311 0 0 1 15.16 2.054A33.929 33.929 0 0 1 65.13 8.803a29.041 29.041 0 0 1 8 10.445 34.634 34.634 0 0 1 2.884 14.64 35.253 35.253 0 0 1-1.967 12.018 31.386 31.386 0 0 1-5.594 9.745 33.908 33.908 0 0 1-8.74 7.3 44.62 44.62 0 0 1-11.492 4.674v.35a26.435 26.435 0 0 1 5.463 3.19 30.063 30.063 0 0 1 4.414 4.239 56.148 56.148 0 0 1 4.152 5.55q2.054 3.1 4.589 7.211zM15.183 13.785v45.45h19.928a30.223 30.223 0 0 0 10.182-1.661 23.573 23.573 0 0 0 8.085-4.763 21.6 21.6 0 0 0 5.332-7.6 25.457 25.457 0 0 0 1.923-10.095q0-10.051-6.511-15.689t-18.836-5.642z" fill="none" stroke="#707070"/></svg>