<svg xmlns="http://www.w3.org/2000/svg" viewBox="0 0 76.953 130.53"><path d="M.5 122.864v-17.306a33.61 33.61 0 0 0 7.123 4.72 57.712 57.712 0 0 0 8.74 3.54 69.578 69.578 0 0 0 9.221 2.229 51.411 51.411 0 0 0 8.565.787q13.547 0 20.234-5.026t6.686-14.465a16.985 16.985 0 0 0-2.229-8.828 25.107 25.107 0 0 0-6.162-6.861 61.143 61.143 0 0 0-9.308-5.943q-5.375-2.841-11.581-5.987-6.555-3.321-12.236-6.73a53.023 53.023 0 0 1-9.876-7.517 31.354 31.354 0 0 1-6.6-9.308 28.812 28.812 0 0 1-2.4-12.193 28.67 28.67 0 0 1 3.758-14.9 32.235 32.235 0 0 1 9.874-10.443A44.775 44.775 0 0 1 28.25 2.515 63.832 63.832 0 0 1 44.201.505q18.529 0 27.007 4.458v16.519q-11.1-7.691-28.493-7.691a46.861 46.861 0 0 0-9.614 1.005 27.158 27.158 0 0 0-8.565 3.278 18.975 18.975 0 0 0-6.118 5.856 15.543 15.543 0 0 0-2.36 8.74 17.994 17.994 0 0 0 1.792 8.3 20.351 20.351 0 0 0 5.288 6.38 52.667 52.667 0 0 0 8.522 5.594q5.026 2.709 11.581 5.943 6.73 3.321 12.761 6.992a58.327 58.327 0 0 1 10.576 8.128 36.121 36.121 0 0 1 7.211 9.876 27.764 27.764 0 0 1 2.663 12.41q0 9.265-3.627 15.689a29.769 29.769 0 0 1-9.789 10.445 42.753 42.753 0 0 1-14.203 5.812 77.783 77.783 0 0 1-16.956 1.794 69.1 69.1 0 0 1-7.342-.481q-4.37-.481-8.915-1.4a72.744 72.744 0 0 1-8.609-2.272A26.789 26.789 0 0 1 .5 122.864z" fill="none" stroke="#707070"/></svg>