<svg xmlns="http://www.w3.org/2000/svg" viewBox="0 0 87.616 128.258"><path d="M.5 127.758V.5h41.6q20.714 0 31.159 8.565t10.448 25.347a25.848 25.848 0 0 1-5.069 15.776 32.863 32.863 0 0 1-13.809 10.62 29.513 29.513 0 0 1 16.3 10.969 31.481 31.481 0 0 1 5.987 19.272q0 17.131-11.1 26.92t-31.378 9.789zm16.781-59.521v45.8h27.707q11.712 0 18.486-6.074t6.774-16.738q0-22.987-25-22.987zm0-13.46h25.348q11.013 0 17.612-5.518t6.6-14.978q0-10.511-6.118-15.285t-18.617-4.774H17.281z" fill="none" stroke="#707070"/></svg>