<svg xmlns="http://www.w3.org/2000/svg" viewBox="0 0 99.143 131.754"><path d="M98.566 112.812a38.765 38.765 0 0 1-18.049 13.853q-11.58 4.589-26.964 4.589a52.291 52.291 0 0 1-27.616-7.298 48.622 48.622 0 0 1-18.66-20.758q-6.6-13.46-6.774-31.2v-11.1q0-28.755 13.416-44.575T51.633.503q19.928 0 32.077 10.182t14.858 28.886H81.784q-4.72-25.347-30.066-25.347-16.869 0-25.565 11.853t-8.784 34.329v10.409q0 21.431 9.789 34.072t26.479 12.645a58.494 58.494 0 0 0 16.519-2.093 25.546 25.546 0 0 0 11.716-7.063V79.861H52.417V66.139h46.148z" fill="none" stroke="#707070"/></svg>