<svg xmlns="http://www.w3.org/2000/svg" viewBox="0 0 103.348 131.754"><path d="M102.849 69.985q0 18.7-6.293 32.645t-17.83 21.282q-11.539 7.342-26.92 7.342a48.638 48.638 0 0 1-26.658-7.385 48.806 48.806 0 0 1-18.049-21.063Q.675 89.128.499 71.123v-9.177q0-18.354 6.38-32.426T24.928 7.975a48.429 48.429 0 0 1 26.7-7.473q15.3 0 26.964 7.385t17.961 21.414q6.293 14.028 6.293 32.645zm-16.694-8.216q0-22.637-9.09-34.742T51.631 14.922q-15.907 0-25.041 12.105t-9.4 33.606v9.352q0 21.938 9.221 34.48t25.395 12.541q16.257 0 25.172-11.843t9.177-33.957z" fill="none" stroke="#707070"/></svg>