<svg xmlns="http://www.w3.org/2000/svg" viewBox="0 0 104.143 151.665"><path d="M102.935 69.985q0 18.442-5.856 31.771t-16.431 20.85l22.725 17.825-11.45 10.575-26.833-21.325a54.6 54.6 0 0 1-13.285 1.573 48.638 48.638 0 0 1-26.658-7.385 48.806 48.806 0 0 1-18.048-21.063Q.673 89.126.5 71.121v-9.177q0-18.354 6.38-32.426T24.929 7.973A48.429 48.429 0 0 1 51.629.5Q67.012.5 78.68 7.929t17.961 21.37q6.293 13.941 6.293 32.557zm-16.781-8.216q0-22.462-8.959-34.655T51.63 14.922q-15.82 0-24.953 12.105t-9.4 33.606v9.352q0 21.851 9.134 34.437t25.394 12.584q16.257 0 25.168-11.842t9.181-33.958z" fill="none" stroke="#707070"/></svg>