<svg xmlns="http://www.w3.org/2000/svg" viewBox="0 0 93.472 131.754"><path d="M45.775 72.782Q24.186 66.576 14.353 57.53A29.14 29.14 0 0 1 4.52 35.199q0-15.033 12.018-24.866T47.784.5a52.135 52.135 0 0 1 23.38 5.069 38.444 38.444 0 0 1 15.907 13.984 35.759 35.759 0 0 1 5.637 19.492H75.841q0-11.578-7.342-18.2t-20.714-6.622q-12.411 0-19.36 5.473t-6.948 15.19q0 7.794 6.6 13.179t22.461 9.85q15.864 4.466 24.822 9.841t13.285 12.542a32.011 32.011 0 0 1 4.326 16.869q0 15.47-12.062 24.779t-32.25 9.308a59.816 59.816 0 0 1-24.473-5.026q-11.362-5.022-17.524-13.765A33.594 33.594 0 0 1 .5 92.623h16.869q0 11.537 8.522 18.223t22.768 6.686q13.285 0 20.365-5.419a17.6 17.6 0 0 0 7.084-14.771q0-9.352-6.555-14.465T45.775 72.782z" fill="none" stroke="#707070"/></svg>